<svg xmlns="http://www.w3.org/2000/svg" shape-rendering="crispEdges" viewBox="0 -0.5 350 350"><path stroke="#949796" d="M144 48h76m-76 1h1m74 0h1m-76 1h1m74 0h1m-76 1h1m74 0h1m-76 1h1m74 0h1m-76 1h1m74 0h1m-76 1h1m74 0h1m-76 1h1m74 0h1m-76 1h1m74 0h1m-76 1h1m74 0h1m-76 1h1m74 0h1m-76 1h1m74 0h1m-76 1h1m74 0h1m-76 1h1m74 0h1m-76 1h1m74 0h1m-76 1h1m74 0h1m-76 1h1m74 0h1m-76 1h1m74 0h1m-76 1h1m74 0h1m-76 1h1m74 0h1m-76 1h1m74 0h1m-76 1h1m74 0h1m-98 1h23m74 0h30m-127 1h1m-1 1h1m-1 1h1m-1 1h1m-1 1h1m-1 1h1m-1 1h1m-1 1h1m-1 1h1m-1 1h1m-1 1h1m-1 1h1m-1 1h1m-1 1h1m-1 1h1m-1 1h1m-1 1h1m-1 1h1m-1 1h1m-1 1h1m-1 1h1m-1 1h1m-1 1h1m125 0h1M90 94h33m125 0h1M90 95h1m-1 1h1m-1 1h1m-1 1h1m-1 1h1m-1 1h1m-1 1h1m-1 1h1m-1 1h1m-1 1h1m-1 1h1m-1 1h1m-1 1h1m-1 1h1m-1 1h1m-1 1h1m-1 1h1m-1 1h1m-1 1h1m-1 1h1m-1 1h1m-1 1h1m-1 1h1m-1 1h1m-1 1h1m-1 1h1m-1 1h1m-1 1h1m-1 1h1m-1 1h1m-1 1h1m-1 1h1m-1 1h1m-1 1h1m-1 1h1m-1 1h1m-1 1h1m-1 1h1m-1 1h1m-1 1h1m-1 1h1m-1 1h1m-1 1h1m-1 1h17m-1 1h1m-1 1h1m-1 1h1m-1 1h1m-1 1h1m-1 1h1m-1 1h1m-1 1h1m-1 1h1m-1 1h1m-1 1h1m-1 1h1m-1 1h1m-1 1h1m-1 1h1m-1 1h1m-1 1h1m-1 1h1m-1 1h1m-1 1h1m-1 1h1m-1 1h1m-1 1h1m-1 1h1m-1 1h1m-1 1h1m-1 1h1m-1 1h1m-1 1h1m-1 1h1m-1 1h1m-1 1h1m-1 1h1m-1 1h1m-1 1h1m-17 1h17m-17 1h1m-1 1h1m-1 1h1m-1 1h1m-1 1h1m-1 1h1m-1 1h1m-1 1h1m-1 1h1m-1 1h1m-1 1h1m-1 1h1m-1 1h1m-1 1h1m-1 1h1m-1 1h1m-1 1h1m-1 1h1m-1 1h1m-1 1h1m-1 1h1m-1 1h1m-1 1h1m-1 1h1m-1 1h1m-1 1h1m-1 1h1m-1 1h1m-1 1h1m-1 1h1m-1 1h1m-1 1h1m-30 1h30m-30 1h1m-1 1h1m-1 1h1m-1 1h1m-1 1h1m-1 1h1m-1 1h1m-1 1h1m-1 1h1m-1 1h1m-1 1h1m-1 1h1m-1 1h1m-1 1h1m-1 1h1m-1 1h1m-1 1h1m-1 1h1m-1 1h1m-1 1h1m-1 1h1m-1 1h1m-1 1h1m-1 1h1m-1 1h1m-1 1h1m-1 1h1m-1 1h1m-1 1h1m-1 1h1m-1 1h1m-1 1h1m-1 1h1m-1 1h1m-1 1h1m-1 1h1m-1 1h1m-1 1h1m-1 1h1m-1 1h1m-1 1h1m-1 1h1m-1 1h1m-1 1h1m-1 1h1m-1 1h1m-1 1h1m-1 1h1m-1 1h1m-1 1h1m-1 1h1m-1 1h30m42 0h71m-113 1h1m40 0h1m71 0h1m-114 1h1m40 0h1m71 0h1m-114 1h1m40 0h1m71 0h1m-114 1h1m40 0h1m71 0h1m-114 1h1m40 0h1m71 0h1m-114 1h1m40 0h1m71 0h1m-114 1h1m40 0h1m71 0h1m-114 1h1m40 0h1m71 0h1m-114 1h1m40 0h1m71 0h1m-114 1h1m40 0h1m71 0h1m-114 1h1m40 0h1m71 0h1m-114 1h1m40 0h1m71 0h1m-114 1h1m40 0h1m71 0h1m-114 1h1m40 0h1m71 0h1m-114 1h1m40 0h1m71 0h1m-114 1h1m40 0h1m71 0h1m-114 1h1m41 0h22m49 0h1m65 0h1m-180 1h1m62 0h1m49 0h1m65 0h1m-180 1h1m62 0h1m49 0h1m65 0h1m-180 1h1m62 0h1m49 0h1m65 0h1m-180 1h1m62 0h1m49 0h1m65 0h1m-180 1h1m62 0h1m49 0h1m65 0h1m-180 1h1m62 0h1m49 0h1m65 0h1m-180 1h1m62 0h1m49 0h1m65 0h1m-180 1h1m62 0h1m49 0h1m65 0h1m-180 1h1m62 0h1m49 0h1m65 0h1m-180 1h1m62 0h1m49 0h1m65 0h1m-180 1h1m62 0h1m49 0h1m65 0h1m-180 1h1m62 0h1m49 0h1m65 0h1m-180 1h1m62 0h1m49 0h1m65 0h1m-180 1h1m62 0h1m49 0h1m65 0h1m-180 1h1m62 0h1m49 0h1m65 0h1m-180 1h1m62 0h1m49 0h1m65 0h1m-180 1h1m62 0h1m49 0h1m65 0h1m-180 1h1m62 0h1m49 0h1m65 0h1m-180 1h1m62 0h1m49 0h1m65 0h1m-180 1h1m62 0h1m49 0h1m65 0h1m-180 1h1m62 0h1m49 0h1m65 0h1m-180 1h1m62 0h1m49 0h1m65 0h1m-180 1h1m62 0h1m49 0h1m65 0h1m-180 1h1m62 0h1m49 0h1m65 0h1m-180 1h64m49 0h67"/><path stroke="#252221" d="M145 49h1m-1 1h1m-1 1h1m-1 1h1m-1 1h1m-1 1h1m-1 1h1m-1 1h1m-1 1h1m-1 1h1m-1 1h1m-1 1h1m-1 1h1m-1 1h1m-1 1h1m-1 1h1m-1 1h1m-1 1h1m-1 1h1m-1 1h1m-1 1h1m-1 1h1m-23 1h23m-23 1h1m-1 1h1m-1 1h1m-1 1h1m-1 1h1m-1 1h1m-1 1h1m-1 1h1m-1 1h1m-1 1h1m-1 1h1m-1 1h1m-1 1h1m-1 1h1m-1 1h1m-1 1h1m-1 1h1m-1 1h1m-1 1h1m-1 1h1m-1 1h1m-1 1h1m-1 1h1m-33 1h33m-33 1h1m-1 1h1m-1 1h1m-1 1h1m-1 1h1m-1 1h1m-1 1h1m-1 1h1m-1 1h1m-1 1h1m-1 1h1m-1 1h1m-1 1h1m-1 1h1m-1 1h1m-1 1h1m-1 1h1m-1 1h1m-1 1h1m-1 1h1m-1 1h1m-1 1h1m-1 1h1m-1 1h1m-1 1h1m-1 1h1m-1 1h1m-1 1h1m-1 1h1m-1 1h1m-1 1h1m-1 1h1m-1 1h1m-1 1h1m-1 1h1m-1 1h1m-1 1h1m-1 1h1m-1 1h1m-1 1h1m-1 1h1m-1 1h17m-1 1h1m-1 1h1m-1 1h1m-1 1h1m-1 1h1m-1 1h1m-1 1h1m-1 1h1m-1 1h1m-1 1h1m-1 1h1m-1 1h1m-1 1h1m-1 1h1m-1 1h1m-1 1h1m-1 1h1m-1 1h1m-1 1h1m-1 1h1m-1 1h1m-1 1h1m-1 1h1m-1 1h1m-1 1h1m-1 1h1m-1 1h1m-1 1h1m-1 1h1m-1 1h1m-1 1h1m-1 1h1m-1 1h1m-1 1h1m-1 1h1m-1 1h1m-1 1h1m-17 1h17m-17 1h1m-1 1h1m-1 1h1m-1 1h1m-1 1h1m-1 1h1m-1 1h1m-1 1h1m-1 1h1m-1 1h1m-1 1h1m-1 1h1m-1 1h1m-1 1h1m-1 1h1m-1 1h1m-1 1h1m-1 1h1m-1 1h1m-1 1h1m-1 1h1m-1 1h1m-1 1h1m-1 1h1m-1 1h1m-1 1h1m-1 1h1m-1 1h1m-1 1h1m-1 1h1m-1 1h1m-1 1h1m-30 1h30m-30 1h1m-1 1h1m-1 1h1m-1 1h1m-1 1h1m-1 1h1m-1 1h1m-1 1h1m-1 1h1m-1 1h1m-1 1h1m-1 1h1m-1 1h1m-1 1h1m-1 1h1m-1 1h1m-1 1h1m-1 1h1m-1 1h1m-1 1h1m-1 1h1m-1 1h1m-1 1h1m-1 1h1m-1 1h1m-1 1h1m-1 1h1m-1 1h1m-1 1h1m-1 1h1m-1 1h1m-1 1h1m-1 1h1m-1 1h1m-1 1h1m-1 1h1m-1 1h1m-1 1h1m-1 1h1m-1 1h1m-1 1h1m-1 1h1m-1 1h1m-1 1h1m-1 1h1m-1 1h1m-1 1h1m-1 1h1m-1 1h1m-1 1h31m-1 1h1m-1 1h1m-1 1h1m-1 1h1m-1 1h1m-1 1h1m-1 1h1m-1 1h1m-1 1h1m-1 1h1m-1 1h1m-1 1h1m-1 1h1m-1 1h1m-1 1h1m-1 1h1m-1 1h1m-1 1h1m-1 1h1m-1 1h1m-1 1h1m-1 1h1m-1 1h1m-1 1h1m-1 1h1m-1 1h1m-1 1h1m-1 1h1m-1 1h1m-1 1h1m-1 1h1m-1 1h1m-1 1h1m-1 1h1m-1 1h1m-1 1h1m-1 1h1m-1 1h1m-1 1h1m-1 1h1m-1 1h1m-1 1h1"/><path stroke="#000" d="M146 49h73m-73 1h73m-73 1h73m-73 1h73m-73 1h73m-73 1h73m-73 1h73m-73 1h73m-73 1h73m-73 1h73m-73 1h73m-73 1h73m-73 1h73m-73 1h73m-73 1h73m-73 1h73m-73 1h73m-73 1h73m-73 1h73m-73 1h73m-73 1h73m-73 1h73m-73 1h102m-124 1h124m-124 1h124m-124 1h124m-124 1h124m-124 1h124m-124 1h124m-124 1h124m-124 1h124m-124 1h124m-124 1h124m-124 1h124m-124 1h124m-124 1h124m-124 1h124m-124 1h124m-124 1h124m-124 1h124m-124 1h124m-124 1h124m-124 1h124m-124 1h124m-124 1h124m-124 1h48m-48 1h47m77 0h39M92 96h79m77 0h39M92 97h79m77 0h39M92 98h79m77 0h39M92 99h79m77 0h39m-195 1h79m77 0h39m-195 1h79m77 0h39m-195 1h79m77 0h39m-195 1h79m77 0h39m-195 1h78m78 0h39m-195 1h78m78 0h39m-195 1h78m78 0h39m-195 1h78m78 0h39m-195 1h78m78 0h39m-195 1h78m78 0h40m-196 1h78m78 0h40m-196 1h19m23 0h36m98 0h20m-196 1h19m23 0h36m98 0h20m-196 1h19m23 0h36m53 0h21m24 0h20m-196 1h19m23 0h36m53 0h21m24 0h20m-196 1h19m23 0h36m53 0h21m24 0h20m-196 1h19m23 0h36m53 0h21m24 0h20m-196 1h19m23 0h36m53 0h21m24 0h20m-196 1h19m23 0h36m53 0h21m24 0h20m-196 1h19m23 0h36m53 0h21m24 0h20m-196 1h19m23 0h36m53 0h21m24 0h20m-196 1h19m23 0h36m53 0h21m24 0h20m-196 1h19m23 0h36m53 0h21m24 0h20m-196 1h19m23 0h36m53 0h21m24 0h20m-196 1h19m23 0h36m53 0h21m24 0h20m-196 1h19m23 0h36m53 0h21m24 0h20m-196 1h19m23 0h36m53 0h21m24 0h20m-196 1h19m23 0h36m53 0h21m24 0h20m-196 1h19m23 0h36m53 0h21m24 0h20m-196 1h19m23 0h36m53 0h21m24 0h20m-196 1h19m23 0h36m53 0h21m24 0h20m-196 1h19m23 0h36m53 0h21m24 0h20m-196 1h19m23 0h36m53 0h21m24 0h20m-196 1h19m23 0h36m53 0h21m24 0h20m-196 1h19m23 0h36m98 0h20m-196 1h19m23 0h36m98 0h20m-196 1h19m23 0h36m98 0h20m-180 1h3m23 0h49m85 0h20m-180 1h3m23 0h49m-75 1h75m54 0h33m-162 1h75m54 0h33m-162 1h75m54 0h33m-162 1h75m54 0h33m-162 1h75m54 0h33m-162 1h75m54 0h33m-162 1h75m54 0h33m-162 1h75m54 0h33m-162 1h75m54 0h33m-162 1h75m54 0h33m-162 1h75m54 0h33m-162 1h75m54 0h33m-162 1h75m54 0h33m-162 1h75m54 0h33m-162 1h75m54 0h33m-162 1h75m54 0h33m-162 1h62m67 0h33m-162 1h62m79 0h21m-162 1h62m79 0h21m-162 1h62m79 0h21m-162 1h62m79 0h21m-162 1h62m79 0h21m-162 1h62m79 0h21m-162 1h62m79 0h21m-162 1h62m79 0h21m-162 1h62m79 0h21m-162 1h62m79 0h21m-162 1h62m79 0h21m-162 1h62m79 0h21m-162 1h62m79 0h21m-162 1h62m79 0h21m-162 1h62m79 0h21m-162 1h62m79 0h21m-162 1h62m79 0h21m-162 1h62m79 0h21m-162 1h62m79 0h21m-162 1h62m79 0h21m-178 1h105m52 0h21m-178 1h105m52 0h21m-178 1h105m52 0h21m-178 1h105m52 0h21m-178 1h105m52 0h21m-178 1h105m52 0h21m-178 1h105m52 0h21m-178 1h105m52 0h21m-178 1h105m52 0h21m-178 1h105m52 0h21m-178 1h105m52 0h21m-178 1h105m52 0h21m-178 1h105m52 0h21m-178 1h156m1 0h21m-178 1h178m-178 1h156m-156 1h156m-156 1h156m-156 1h156m-156 1h156m-156 1h156m-156 1h156m-156 1h156m-156 1h156m-156 1h156m-156 1h156m-156 1h156m-156 1h156m-156 1h156m-156 1h156m-156 1h156m-156 1h156m-156 1h156m-185 1h185m-185 1h185m-185 1h185m-185 1h185m-185 1h185m-185 1h185m-185 1h185m-185 1h185m-185 1h185m-185 1h185m-185 1h185m-185 1h185m-185 1h185m-185 1h185m-185 1h185m-185 1h185m-185 1h185m-185 1h185m-185 1h185m-185 1h185m-185 1h185m-185 1h185m-185 1h185m-185 1h185m-185 1h185m-185 1h185m-185 1h185m-185 1h185m-185 1h185m-185 1h185m-185 1h185m-185 1h185m-185 1h185m-185 1h185m-185 1h185m-185 1h185m-185 1h185m-185 1h185m-185 1h185m-185 1h185m-185 1h185m-185 1h185m-185 1h185m-185 1h185m-185 1h185m-185 1h185m-185 1h185m-185 1h185m-185 1h185m-155 1h155m-155 1h39m73 0h43m-155 1h39m73 0h43m-155 1h39m73 0h43m-155 1h39m73 0h43m-155 1h39m73 0h43m-155 1h39m73 0h43m-155 1h39m73 0h43m-155 1h39m73 0h43m-155 1h39m73 0h43m-155 1h39m73 0h43m-155 1h39m73 0h43m-155 1h39m73 0h43m-155 1h39m73 0h43m-155 1h39m73 0h43m-155 1h39m73 0h43m-155 1h39m73 0h43m-155 1h39m73 0h43m-155 1h39m73 0h43m-155 1h61m51 0h65m-177 1h61m51 0h65m-177 1h61m51 0h65m-177 1h61m51 0h65m-177 1h61m51 0h65m-177 1h61m51 0h65m-177 1h61m51 0h65m-177 1h61m51 0h65m-177 1h61m51 0h65m-177 1h61m51 0h65m-177 1h61m51 0h65m-177 1h61m51 0h65m-177 1h61m51 0h65m-177 1h61m51 0h65m-177 1h61m51 0h65m-177 1h61m51 0h65m-177 1h61m51 0h65m-177 1h61m51 0h65m-177 1h61m51 0h65m-177 1h61m51 0h65m-177 1h61m51 0h65m-177 1h61m51 0h65m-177 1h61m51 0h65m-177 1h61m51 0h65"/><path stroke="#908e8e" d="M248 71h1"/><path stroke="#8c8f8e" d="M248 72h1"/><path stroke="#8b8c8a" d="M248 73h1"/><path stroke="#8c8c8c" d="M248 74h1"/><path stroke="#8e8d8d" d="M248 75h1m21 114h1"/><path stroke="#90908f" d="M248 76h1"/><path stroke="#919191" d="M248 77h1"/><path stroke="#939493" d="M248 78h1"/><path stroke="#949495" d="M248 79h1"/><path stroke="#949593" d="M248 80h1"/><path stroke="#949494" d="M248 81h1"/><path stroke="#949393" d="M248 82h1"/><path stroke="#919693" d="M248 83h1"/><path stroke="#8e9290" d="M248 84h1"/><path stroke="#959595" d="M248 85h1"/><path stroke="#959695" d="M248 86h1"/><path stroke="#969695" d="M248 87h1"/><path stroke="#979797" d="M248 88h1"/><path stroke="#999" d="M248 89h1"/><path stroke="#969a97" d="M248 90h1"/><path stroke="#969897" d="M248 91h1"/><path stroke="#989796" d="M248 92h1"/><path stroke="#525251" d="M172 94h76m-77 1h2m-2 1h1m-1 1h1m-1 1h1m-1 1h1m-1 1h1m-1 1h1m-1 1h1m-1 1h1m-2 1h2m-2 1h1m-1 1h1m-1 1h1m-1 1h1m-1 1h1m-1 1h1m-1 1h1m-1 1h1m-1 1h1m-1 1h1m-1 1h1m-1 1h1m-1 1h1m-1 1h1m-1 1h1m-1 1h1m-1 1h1m-1 1h1m-1 1h1m-1 1h1m-1 1h1m-1 1h1m-1 1h1m-1 1h1m-1 1h1m-1 1h1m-1 1h1m-1 1h1m-1 1h1m-1 1h1m-1 1h1m-1 1h14m-1 1h1m-1 1h1m-1 1h1m-1 1h1m-1 1h1m-1 1h1m-1 1h1m-1 1h1m-1 1h1m-1 1h1m-1 1h1m-1 1h1m-1 1h1m-1 1h1m-1 1h1m-1 1h1m-1 1h1m-1 1h1m-14 1h14"/><path stroke="#a1a1a0" d="M249 94h1m38 7h1m-19 50h1"/><path stroke="#a6a6a4" d="M250 94h1m2 0h1"/><path stroke="#a7a6a5" d="M251 94h1m36 14h1"/><path stroke="#a5a8a5" d="M252 94h1"/><path stroke="#a8a5a2" d="M254 94h1"/><path stroke="#a5a7a6" d="M255 94h2m-10 12h1m40 25h1"/><path stroke="#aaa7a7" d="M257 94h1m9 0h1m-11 97h1"/><path stroke="#a5a7a7" d="M258 94h1m4 0h1m15 0h1m8 38h1"/><path stroke="#a7a7a7" d="M259 94h1m8 0h1m19 41h1m-41 135h1"/><path stroke="#a3a7a8" d="M260 94h1"/><path stroke="#a4a7a6" d="M261 94h1m26 30h1m-41 139h1"/><path stroke="#a5a6a7" d="M262 94h1"/><path stroke="#a6a8a7" d="M264 94h1m23 18h1m-19 29h1m-23 132h1m3 3h1"/><path stroke="#a7a9a8" d="M265 94h1m-18 180h1"/><path stroke="#a8aba7" d="M266 94h1"/><path stroke="#a6a6a6" d="M269 94h1m18 10h1m-19 38h1"/><path stroke="#a8a4a6" d="M270 94h1"/><path stroke="#a9a4a5" d="M271 94h1"/><path stroke="#a7a6a8" d="M272 94h1m-36 62h1"/><path stroke="#a9a5a8" d="M273 94h1m2 0h1"/><path stroke="#a7a7a4" d="M274 94h1"/><path stroke="#a7a9a7" d="M275 94h1m-28 177h1"/><path stroke="#a8a8a6" d="M277 94h1"/><path stroke="#a9a9a8" d="M278 94h1m-31 168h1"/><path stroke="#a9a5a9" d="M280 94h1"/><path stroke="#a7aaa9" d="M281 94h1m1 0h1m-173 18h1m21 0h1m-23 1h1m21 0h1m-23 1h1m21 0h1m-23 1h1m21 0h1m-23 1h1m21 0h1m-23 1h1m21 0h1m-23 1h1m21 0h1m-23 1h1m21 0h1m-23 1h1m21 0h1m-23 1h1m21 0h1m-23 1h1m21 0h1m-23 1h1m21 0h1m-23 1h1m21 0h1m-23 1h1m21 0h1m-23 1h1m21 0h1m-23 1h1m21 0h1m-23 1h1m21 0h1m-23 1h1m21 0h1m-23 1h1m21 0h1m-23 1h1m21 0h1m-23 1h1m21 0h1m-23 1h1m21 0h1m-23 1h1m21 0h1m-23 1h1m21 0h1m-23 1h1m21 0h1m-23 1h1m21 0h1"/><path stroke="#aaa8aa" d="M282 94h1m5 43h1m-119 37h1"/><path stroke="#a6a9a7" d="M284 94h1"/><path stroke="#a4a8a7" d="M285 94h1"/><path stroke="#838483" d="M286 94h1m0 1h1m-1 2h2m-53 41h51"/><path stroke="#fff" d="M173 95h74m-75 1h75m-75 1h75m-75 1h75m-75 1h75m-75 1h75m-75 1h75m-75 1h75m-75 1h75m-75 1h75m-76 1h76m-76 1h76m-76 1h76m-76 1h76m-76 1h76m-76 1h76m-76 1h76m-135 1h21m38 0h19m20 0h12m23 0h22m-155 1h21m38 0h19m20 0h12m23 0h22m-155 1h21m38 0h19m20 0h12m23 0h22m-155 1h21m38 0h19m20 0h12m23 0h22m-155 1h21m38 0h19m20 0h12m23 0h22m-155 1h21m38 0h19m20 0h12m23 0h22m-155 1h21m38 0h19m20 0h12m23 0h22m-155 1h21m38 0h19m20 0h12m23 0h22m-155 1h21m38 0h19m20 0h12m23 0h22m-155 1h21m38 0h19m20 0h12m23 0h22m-155 1h21m38 0h19m20 0h12m23 0h22m-155 1h21m38 0h19m20 0h12m23 0h22m-155 1h21m38 0h19m20 0h12m23 0h22m-155 1h21m38 0h19m20 0h12m23 0h22m-155 1h21m38 0h19m20 0h12m23 0h22m-155 1h21m38 0h19m20 0h12m23 0h22m-155 1h21m38 0h19m20 0h12m23 0h22m-155 1h21m38 0h19m20 0h12m23 0h22m-155 1h21m38 0h19m20 0h12m23 0h22m-155 1h21m38 0h19m20 0h12m23 0h22m-155 1h21m38 0h19m20 0h12m23 0h22m-155 1h21m38 0h19m20 0h12m23 0h22m-155 1h21m38 0h19m20 0h12m23 0h22m-155 1h21m38 0h19m20 0h57m-155 1h21m51 0h7m18 0h58m-155 1h21m51 0h83m-83 1h52m-52 1h52m-52 1h52m-52 1h52m-52 1h52m-52 1h52m-52 1h52m-52 1h52m-52 1h52m-52 1h52m-52 1h52m-52 1h52m-52 1h52m-52 1h52m-52 1h52m-52 1h52m-52 1h52m-52 1h52m-65 1h65m-65 1h77m-77 1h77m-77 1h77m-77 1h77m-77 1h77m-77 1h77m-77 1h77m-77 1h77m-77 1h77m-77 1h77m-77 1h77m-77 1h77m-77 1h77m-77 1h77m-77 1h77m-77 1h77m-77 1h77m-77 1h77m-50 1h50m-50 1h50m-50 1h50m-50 1h50m-50 1h50m-50 1h50m-50 1h50m-50 1h50m-50 1h50m-50 1h50m-50 1h50m-50 1h50m-50 1h50"/><path stroke="#989696" d="M247 95h1"/><path stroke="#989b96" d="M247 96h1"/><path stroke="#7a7978" d="M287 96h1"/><path stroke="#9b9b9a" d="M247 97h1"/><path stroke="#9e9c9e" d="M247 98h1"/><path stroke="#060601" d="M287 98h1"/><path stroke="#939392" d="M288 98h1"/><path stroke="#a09d9e" d="M247 99h1"/><path stroke="#080803" d="M287 99h1"/><path stroke="#979999" d="M288 99h1"/><path stroke="#a0a09f" d="M247 100h1m0 92h1"/><path stroke="#070401" d="M287 100h1"/><path stroke="#9e9e9d" d="M288 100h1"/><path stroke="#a1a3a1" d="M247 101h1m0 108h1"/><path stroke="#0a0804" d="M287 101h1"/><path stroke="#a0a3a2" d="M247 102h1"/><path stroke="#080601" d="M287 102h1"/><path stroke="#a4a4a4" d="M288 102h1m-41 121h1"/><path stroke="#a0a3a3" d="M247 103h1m-1 5h1"/><path stroke="#040603" d="M287 103h1"/><path stroke="#a8a7a6" d="M288 103h1m-1 12h1"/><path stroke="#a4a4a3" d="M247 104h1m-1 5h1m-5 47h3m2 58h1m-1 1h1m-1 34h1"/><path stroke="#060404" d="M287 104h1"/><path stroke="#a2a5a3" d="M247 105h1m22 42h1m-23 80h1"/><path stroke="#060a03" d="M287 105h1"/><path stroke="#a8a8a7" d="M288 105h1m-26 171h1m3 0h1"/><path stroke="#060803" d="M287 106h1"/><path stroke="#a9a9a9" d="M288 106h1m-1 17h1"/><path stroke="#a3a6a5" d="M247 107h1m-7 49h1m6 110h1"/><path stroke="#040601" d="M287 107h1"/><path stroke="#a9a6a5" d="M288 107h1m-1 9h1m-36 75h1"/><path stroke="#080404" d="M287 108h1"/><path stroke="#a8a8a5" d="M288 109h1m-1 9h1m-1 12h1"/><path stroke="#a09fa1" d="M247 110h1"/><path stroke="#a6a8a6" d="M288 110h1m-1 17h1m-1 1h1m-1 5h1m-27 143h1"/><path stroke="#454645" d="M111 111h1"/><path stroke="#6e7070" d="M112 111h1"/><path stroke="#726e70" d="M113 111h1"/><path stroke="#726f71" d="M114 111h1"/><path stroke="#737273" d="M115 111h1"/><path stroke="#717273" d="M116 111h1"/><path stroke="#757676" d="M117 111h1"/><path stroke="#797677" d="M118 111h1"/><path stroke="#797576" d="M119 111h1"/><path stroke="#777976" d="M120 111h1"/><path stroke="#787878" d="M121 111h1"/><path stroke="#7c7c7c" d="M122 111h1"/><path stroke="#7f7d7d" d="M123 111h1"/><path stroke="#807c7c" d="M124 111h1"/><path stroke="#7e7e7c" d="M125 111h1"/><path stroke="#7b7e7c" d="M126 111h1"/><path stroke="#7f7f7d" d="M127 111h1"/><path stroke="#7e7d7d" d="M128 111h1"/><path stroke="#7a7b7b" d="M129 111h1"/><path stroke="#7d7c7d" d="M130 111h1"/><path stroke="#7c7c7d" d="M131 111h1"/><path stroke="#7c7c7a" d="M132 111h1"/><path stroke="#555455" d="M133 111h1m-16 27h1"/><path stroke="#b6b6b3" d="M247 111h1"/><path stroke="#505051" d="M248 111h1m18 16h1"/><path stroke="#505151" d="M249 111h1"/><path stroke="#4f5050" d="M250 111h1m16 14h1"/><path stroke="#4d5050" d="M251 111h1m15 24h1"/><path stroke="#4d4e4f" d="M252 111h1"/><path stroke="#4e4e4d" d="M253 111h1m-18 38h1"/><path stroke="#4e4c4e" d="M254 111h1"/><path stroke="#4e4d4e" d="M255 111h1m-20 36h1"/><path stroke="#504e4e" d="M256 111h1"/><path stroke="#504e50" d="M257 111h1"/><path stroke="#4f4f4f" d="M258 111h1m8 15h1"/><path stroke="#4f4e4e" d="M259 111h1m-24 42h1"/><path stroke="#525151" d="M260 111h1"/><path stroke="#504f50" d="M261 111h1"/><path stroke="#51514f" d="M262 111h1"/><path stroke="#535152" d="M263 111h1m-139 27h1"/><path stroke="#515351" d="M264 111h1"/><path stroke="#545251" d="M265 111h1"/><path stroke="#494848" d="M266 111h1"/><path stroke="#10100e" d="M267 111h1"/><path stroke="#a6a9a8" d="M288 111h1"/><path stroke="#989899" d="M190 112h2m-2 1h1m-1 1h1m-1 1h1m-1 1h1m-1 1h1m-1 1h1m-1 1h1m-1 1h1m-1 1h1m-1 1h1m-1 1h1m-1 1h1m-1 1h1m-1 1h1m-1 1h1m-1 1h1m-1 1h1m-1 1h1m-1 1h1m-1 1h1m-1 1h1m-1 1h1m-1 1h1"/><path stroke="#888987" d="M192 112h1"/><path stroke="#848585" d="M193 112h1"/><path stroke="#838583" d="M194 112h1m4 0h1"/><path stroke="#848482" d="M195 112h1"/><path stroke="#828282" d="M196 112h1m5 0h1"/><path stroke="#828384" d="M197 112h1"/><path stroke="#838380" d="M198 112h1"/><path stroke="#848484" d="M200 112h1"/><path stroke="#858484" d="M201 112h1"/><path stroke="#818382" d="M203 112h1m4 0h1"/><path stroke="#808182" d="M204 112h1"/><path stroke="#808382" d="M205 112h1"/><path stroke="#808280" d="M206 112h1m2 0h1m-1 1h1m-1 1h1m-1 1h1m-1 1h1m-1 1h1m-1 1h1m-1 1h1m-1 1h1m-1 1h1m-1 1h1m-1 1h1m-1 1h1m-1 1h1m-1 1h1m-1 1h1m-1 1h1m-1 1h1m-1 1h1m-1 1h1m-1 1h1m-1 1h1m-1 1h1m-19 1h1m16 0h2m-19 1h18"/><path stroke="#808281" d="M207 112h1"/><path stroke="#7f8080" d="M222 112h23m-23 22h23"/><path stroke="#4a4949" d="M267 112h1"/><path stroke="#5e5d5c" d="M191 113h1m-1 1h1m-1 1h1m-1 1h1m-1 1h1m-1 1h1m-1 1h1m-1 1h1m-1 1h1m-1 1h1m-1 1h1m-1 1h1m-1 1h1m-1 1h1m-1 1h1m-1 1h1m-1 1h1m-1 1h1m-1 1h1m-1 1h1m-1 1h1m-1 1h1"/><path stroke="#464642" d="M192 113h16m-16 1h16m-16 1h16m-16 1h16m-16 1h16m-16 1h16m-16 1h16m-16 1h16m-16 1h16m-16 1h16m-16 1h16m-16 1h16m-16 1h16m-16 1h16m-16 1h16m-16 1h16m-16 1h16m-16 1h16m-16 1h16m-16 1h16m-16 1h16m-16 1h16"/><path stroke="#434442" d="M208 113h1m-1 1h1m-1 1h1m-1 1h1m-1 1h1m-1 1h1m-1 1h1m-1 1h1m-1 1h1m-1 1h1m-1 1h1m-1 1h1m-1 1h1m-1 1h1m-1 1h1m-1 1h1m-1 1h1m-1 1h1m-1 1h1m-1 1h1m-1 1h1m-1 1h1m-17 1h16"/><path stroke="#a6a5a3" d="M222 113h1m-1 1h1m-1 1h1m-1 1h1m-1 1h1m-1 1h1m-1 1h1m-1 1h1m-1 1h1m-1 1h1m-1 1h1m-1 1h1m-1 1h1m-1 1h1m-1 1h1m-1 1h1m-1 1h1m-1 1h1m-1 1h1m-1 1h1m-1 1h1"/><path stroke="#717372" d="M244 113h1m-1 1h1m-1 1h1m-1 1h1m-1 1h1m-1 1h1m-1 1h1m-1 1h1m-1 1h1m-1 1h1m-1 1h1m-1 1h1m-1 1h1m-1 1h1m-1 1h1m-1 1h1m-1 1h1m-1 1h1m-1 1h1m-1 1h1m-1 1h1m3 143h1"/><path stroke="#514f4f" d="M267 113h1"/><path stroke="#a4a6a5" d="M288 113h1"/><path stroke="#525052" d="M267 114h1"/><path stroke="#a6a6a5" d="M288 114h1m-41 93h1"/><path stroke="#535151" d="M267 115h1"/><path stroke="#525152" d="M267 116h1m-1 5h1"/><path stroke="#515252" d="M267 117h1m-1 16h1"/><path stroke="#a9a6a7" d="M288 117h1"/><path stroke="#525252" d="M267 118h1"/><path stroke="#525353" d="M267 119h1"/><path stroke="#a8a9a5" d="M288 119h1"/><path stroke="#515253" d="M267 120h1"/><path stroke="#a7aaa6" d="M288 120h1"/><path stroke="#aba9a8" d="M288 121h1"/><path stroke="#505150" d="M267 122h1"/><path stroke="#aaaaa8" d="M288 122h1m-23 69h1"/><path stroke="#505050" d="M267 123h1m-32 23h1m-1 8h1"/><path stroke="#505152" d="M267 124h1"/><path stroke="#a3a6a6" d="M288 125h1m-1 1h1"/><path stroke="#4e4f50" d="M267 128h1"/><path stroke="#4e504f" d="M267 129h1"/><path stroke="#a6a8a5" d="M288 129h1"/><path stroke="#505250" d="M267 130h1"/><path stroke="#4f5150" d="M267 131h1"/><path stroke="#4f504e" d="M267 132h1"/><path stroke="#515151" d="M267 134h1"/><path stroke="#a5a5a5" d="M288 134h1"/><path stroke="#4d4f51" d="M267 136h1"/><path stroke="#a8a8a8" d="M288 136h1m-34 55h1m13 85h1"/><path stroke="#505153" d="M267 137h1"/><path stroke="#383939" d="M111 138h1"/><path stroke="#545554" d="M112 138h1m4 0h1m1 0h1"/><path stroke="#555755" d="M113 138h1"/><path stroke="#565755" d="M114 138h2"/><path stroke="#565555" d="M116 138h1"/><path stroke="#555553" d="M120 138h1"/><path stroke="#524f50" d="M121 138h1"/><path stroke="#50514f" d="M122 138h1"/><path stroke="#515150" d="M123 138h1"/><path stroke="#50504f" d="M124 138h1"/><path stroke="#535353" d="M126 138h1"/><path stroke="#555654" d="M127 138h1"/><path stroke="#555" d="M128 138h1"/><path stroke="#555557" d="M129 138h1"/><path stroke="#575757" d="M130 138h1"/><path stroke="#575758" d="M131 138h2"/><path stroke="#3e3f3d" d="M133 138h1"/><path stroke="#878586" d="M287 138h1"/><path stroke="#d6d5d4" d="M288 138h1"/><path stroke="#5f5f5f" d="M236 139h1"/><path stroke="#afb0b1" d="M270 139h1"/><path stroke="#4c4a4b" d="M236 140h1"/><path stroke="#a5a5a4" d="M270 140h1"/><path stroke="#484a4b" d="M236 141h1"/><path stroke="#4a4a4b" d="M236 142h1"/><path stroke="#4b4b4b" d="M236 143h1"/><path stroke="#a8a7a7" d="M270 143h1m-1 1h1m-10 132h1"/><path stroke="#4a4a4c" d="M236 144h1"/><path stroke="#4b4b4d" d="M236 145h1"/><path stroke="#a6a5a5" d="M270 145h1"/><path stroke="#a7a1a4" d="M270 146h1"/><path stroke="#4e4e4e" d="M236 148h1"/><path stroke="#a3a3a2" d="M270 148h1m-23 48h1m-1 56h1"/><path stroke="#a4a3a2" d="M270 149h1"/><path stroke="#504f4d" d="M236 150h1"/><path stroke="#a2a2a2" d="M270 150h1m-1 4h1m-1 1h1"/><path stroke="#4e4d4d" d="M236 151h1"/><path stroke="#504f4f" d="M236 152h1"/><path stroke="#a0a2a1" d="M270 152h1"/><path stroke="#a3a1a2" d="M270 153h1"/><path stroke="#505052" d="M236 155h1"/><path stroke="#aeadae" d="M170 156h1"/><path stroke="#bdbdbe" d="M236 156h1"/><path stroke="#a4a6a4" d="M238 156h1m1 0h1m7 102h1"/><path stroke="#a4a6a6" d="M239 156h1m8 84h1"/><path stroke="#a2a4a3" d="M242 156h1m5 94h1m-1 4h1"/><path stroke="#a4a4a2" d="M246 156h1"/><path stroke="#989a99" d="M247 156h1"/><path stroke="#4e4f4d" d="M248 156h1m-1 1h1m-1 1h1m-1 1h1m-1 1h1m-1 1h1m-1 1h1m-1 1h1m-1 1h1m-1 1h1m-1 1h1m-1 1h1m-1 1h1m-1 1h1m-1 1h1m-1 1h1m-1 1h1m-1 1h1m-1 1h1m-1 1h1m-1 1h1m-1 1h1m-1 1h1m-1 1h1m-1 1h1m-1 1h1m-1 1h1m-1 1h1m-1 1h1m-1 1h1m-1 1h1m-1 1h1m-1 1h1"/><path stroke="#a4a0a1" d="M270 156h1"/><path stroke="#aeaeaa" d="M170 157h1"/><path stroke="#a1a1a1" d="M270 157h1"/><path stroke="#aeadad" d="M170 158h1"/><path stroke="#a2a29f" d="M270 158h1"/><path stroke="#afafae" d="M170 159h1"/><path stroke="#a2a2a1" d="M270 159h1"/><path stroke="#aaabac" d="M170 160h1"/><path stroke="#a2a2a0" d="M270 160h1"/><path stroke="#abadac" d="M170 161h1"/><path stroke="#a2a1a0" d="M270 161h1"/><path stroke="#ababab" d="M170 162h1"/><path stroke="#a2a09f" d="M270 162h1"/><path stroke="#aca9ad" d="M170 163h1"/><path stroke="#a0a09e" d="M270 163h1"/><path stroke="#abadad" d="M170 164h1m-1 2h1"/><path stroke="#a3a2a0" d="M270 164h1"/><path stroke="#adada9" d="M170 165h1"/><path stroke="#a5a3a3" d="M270 165h1"/><path stroke="#a19f9f" d="M270 166h1"/><path stroke="#adacad" d="M170 167h1m-1 2h1"/><path stroke="#9f9e9d" d="M270 167h1"/><path stroke="#abacae" d="M170 168h1"/><path stroke="#a09f9f" d="M270 168h1"/><path stroke="#9d9d9d" d="M270 169h1"/><path stroke="#aba9ab" d="M170 170h1"/><path stroke="#9c9b9a" d="M270 170h1"/><path stroke="#aaaaa9" d="M170 171h1"/><path stroke="#9d9a9b" d="M270 171h1"/><path stroke="#acabac" d="M170 172h1"/><path stroke="#999b9a" d="M270 172h1"/><path stroke="#aaadab" d="M170 173h1"/><path stroke="#989b97" d="M270 173h1"/><path stroke="#9a9a98" d="M270 174h1"/><path stroke="#525450" d="M170 175h27"/><path stroke="#aaa7a9" d="M197 175h1m-1 1h1m-1 1h1m-1 1h1m-1 1h1m-1 1h1m-1 1h1m-1 1h1m-1 1h1m-1 1h1m-1 1h1m-1 1h1m-1 1h1m-1 1h51"/><path stroke="#989797" d="M270 175h1"/><path stroke="#969696" d="M270 176h1"/><path stroke="#959796" d="M270 177h1"/><path stroke="#969693" d="M270 178h1"/><path stroke="#959492" d="M270 179h1"/><path stroke="#959491" d="M270 180h1"/><path stroke="#939391" d="M270 181h1"/><path stroke="#90918f" d="M270 182h1"/><path stroke="#8f8f90" d="M270 183h1"/><path stroke="#8e8e8c" d="M270 184h1"/><path stroke="#8d8e8c" d="M270 185h1"/><path stroke="#8d918b" d="M270 186h1"/><path stroke="#8d8e8e" d="M270 187h1"/><path stroke="#8e8e8d" d="M270 188h1"/><path stroke="#030306" d="M248 189h1"/><path stroke="#8e8f8f" d="M270 190h1"/><path stroke="#6c6a6a" d="M248 191h1"/><path stroke="#aba8a7" d="M249 191h1m9 0h1"/><path stroke="#a9a7a4" d="M250 191h1"/><path stroke="#a9a7a7" d="M251 191h1"/><path stroke="#a9a6a9" d="M252 191h1m11 85h1"/><path stroke="#a9a9a7" d="M254 191h1"/><path stroke="#a8a7a8" d="M256 191h1"/><path stroke="#aca7a8" d="M258 191h1"/><path stroke="#aca7ab" d="M260 191h1"/><path stroke="#aba7ab" d="M261 191h1"/><path stroke="#aea7ab" d="M262 191h1"/><path stroke="#aca9a8" d="M263 191h1"/><path stroke="#aca8a7" d="M264 191h1"/><path stroke="#a9a7a9" d="M265 191h1m1 0h1m-20 81h1"/><path stroke="#a9a7a8" d="M268 191h1"/><path stroke="#aaacac" d="M269 191h1"/><path stroke="#dcdbdd" d="M270 191h1"/><path stroke="#9f9fa0" d="M248 193h1"/><path stroke="#a39fa0" d="M248 194h1"/><path stroke="#9fa1a0" d="M248 195h1"/><path stroke="#a6a4a3" d="M248 197h1m-1 37h1"/><path stroke="#a3a3a3" d="M248 198h1m-1 15h1m-1 18h1"/><path stroke="#a1a4a4" d="M248 199h1"/><path stroke="#a1a4a3" d="M248 200h1m-1 16h1"/><path stroke="#a1a3a3" d="M248 201h1m-1 16h1"/><path stroke="#a2a5a2" d="M248 202h1"/><path stroke="#a7a6a6" d="M248 203h1m-1 58h1"/><path stroke="#a5a8a7" d="M248 204h1m-1 65h1"/><path stroke="#a7a6a7" d="M248 205h1"/><path stroke="#a8a5a6" d="M248 206h1m-1 54h1"/><path stroke="#a5a5a0" d="M248 208h1"/><path stroke="#a1a3a2" d="M248 210h1"/><path stroke="#a3a3a0" d="M248 211h1"/><path stroke="#a0a1a3" d="M248 212h1"/><path stroke="#a1a3a5" d="M248 218h1m-1 18h1"/><path stroke="#a1a4a5" d="M248 219h1"/><path stroke="#a4a6a7" d="M248 220h1"/><path stroke="#a4a4a5" d="M248 221h1m-1 23h1"/><path stroke="#a3a6a3" d="M248 222h1"/><path stroke="#a3a5a5" d="M248 224h1m-1 8h1"/><path stroke="#a2a4a2" d="M248 225h1"/><path stroke="#a4a5a2" d="M248 226h1"/><path stroke="#a2a4a5" d="M248 228h1m-1 1h1"/><path stroke="#a5a4a4" d="M248 230h1"/><path stroke="#a7a6a4" d="M248 233h1"/><path stroke="#a3a6a4" d="M248 235h1"/><path stroke="#9fa2a3" d="M248 237h1"/><path stroke="#a4a3a4" d="M248 238h1m-1 7h1"/><path stroke="#a0a4a4" d="M248 239h1"/><path stroke="#a4a7a5" d="M248 241h1"/><path stroke="#a3a7a6" d="M248 242h1"/><path stroke="#a2a3a5" d="M248 243h1"/><path stroke="#a4a3a5" d="M248 246h1"/><path stroke="#a2a5a6" d="M248 247h1"/><path stroke="#a2a2a3" d="M248 248h1m-1 5h1"/><path stroke="#a1a5a3" d="M248 251h1"/><path stroke="#a4a3a3" d="M248 255h1"/><path stroke="#a3a5a6" d="M248 256h1"/><path stroke="#a3a7a4" d="M248 257h1"/><path stroke="#2d2b2c" d="M91 259h1"/><path stroke="#2b2d2e" d="M132 259h1"/><path stroke="#433f3f" d="M204 259h1"/><path stroke="#a7a7a5" d="M248 259h1"/><path stroke="#a6a5a6" d="M248 264h1"/><path stroke="#a4a8a5" d="M248 265h1"/><path stroke="#a7a4a7" d="M248 267h1"/><path stroke="#a6a5a7" d="M248 268h1"/><path stroke="#a8a9a4" d="M248 275h1"/><path stroke="#151616" d="M132 276h1"/><path stroke="#aba9aa" d="M249 276h1"/><path stroke="#a9abab" d="M250 276h1"/><path stroke="#aba7a8" d="M251 276h1m13 0h1"/><path stroke="#a8aaa8" d="M253 276h1"/><path stroke="#adaaa7" d="M254 276h1"/><path stroke="#a6aaa8" d="M255 276h1"/><path stroke="#a6a8a8" d="M256 276h2m1 0h1"/><path stroke="#a2a5a8" d="M258 276h1"/><path stroke="#a7a8a9" d="M260 276h1"/><path stroke="#a7a8aa" d="M266 276h1"/><path stroke="#a6a7a8" d="M268 276h1"/></svg>